<svg width="32" height="33" viewBox="0 0 32 33" fill="none" xmlns="http://www.w3.org/2000/svg">
<path d="M21.6 26.7143C22.72 26.7143 23.6667 26.3345 24.44 25.575C25.2133 24.8155 25.6 23.8857 25.6 22.7857C25.6 21.6857 25.2133 20.756 24.44 19.9964C23.6667 19.2369 22.72 18.8571 21.6 18.8571C20.48 18.8571 19.5333 19.2369 18.76 19.9964C17.9867 20.756 17.6 21.6857 17.6 22.7857C17.6 23.8857 17.9867 24.8155 18.76 25.575C19.5333 26.3345 20.48 26.7143 21.6 26.7143ZM30.8546 31.9249C30.2461 32.5226 29.2717 32.5248 28.6604 31.93L26.8647 30.1827C26.026 29.3666 24.7474 29.2657 23.6208 29.5821C22.9669 29.7655 22.2933 29.8571 21.6 29.8571C19.6 29.8571 17.8997 29.1699 16.4992 27.7954C15.0997 26.4199 14.4 24.75 14.4 22.7857C14.4 20.8214 15.0997 19.1515 16.4992 17.776C17.8997 16.4015 19.6 15.7143 21.6 15.7143C23.6 15.7143 25.3003 16.4015 26.7008 17.776C28.1003 19.1515 28.8 20.8214 28.8 22.7857C28.8 23.4929 28.6997 24.1675 28.4992 24.8097C28.1578 25.9071 28.269 27.1696 29.0927 27.9711L30.8494 29.6804C31.4806 30.2946 31.483 31.3078 30.8546 31.9249ZM3.2 31.4286C2.32 31.4286 1.5664 31.1211 0.9392 30.5061C0.313066 29.8901 0 29.15 0 28.2857V3.14286C0 2.27857 0.313066 1.53843 0.9392 0.922428C1.5664 0.307476 2.32 0 3.2 0H9.95668C13.8299 0 17.5483 1.52062 20.3116 4.2346L24.9842 8.82372C25.3781 9.21062 25.6 9.73961 25.6 10.2918V11.3072C25.6 12.2854 24.5998 12.9564 23.64 12.7679C22.9733 12.6369 22.2933 12.5714 21.6 12.5714C20.1067 12.5714 18.7136 12.8464 17.4208 13.3964C16.8657 13.6324 16.3437 13.9094 15.8549 14.2273C14.6135 15.0348 13.2398 15.7143 11.7589 15.7143H7.97143C7.10355 15.7143 6.4 16.4178 6.4 17.2857C6.4 18.1536 7.10355 18.8571 7.97143 18.8571H10.3864C11.1502 18.8571 11.6706 19.6446 11.5008 20.3893C11.2931 21.2919 10.5334 22 9.60717 22H7.97143C7.10355 22 6.4 22.7036 6.4 23.5714C6.4 24.4393 7.10355 25.1429 7.97143 25.1429H9.221C10.5414 25.1429 11.6448 26.0829 12.2154 27.2737C12.4592 27.7824 12.7474 28.2706 13.08 28.7383C13.7291 29.6501 13.1294 31.4286 12.0101 31.4286H3.2ZM14.4 8.678C14.4 9.96041 15.4396 11 16.722 11C18.8008 11 19.8321 8.478 18.349 7.02138C16.8803 5.5789 14.4 6.61939 14.4 8.678Z" fill="white"/>
</svg>
