<svg width="32" height="32" viewBox="0 0 32 32" fill="none" xmlns="http://www.w3.org/2000/svg">
<path d="M16 21.3334C17.4145 21.3334 18.771 20.7715 19.7712 19.7713C20.7714 18.7711 21.3333 17.4146 21.3333 16.0001C21.3333 14.5856 20.7714 13.229 19.7712 12.2288C18.771 11.2287 17.4145 10.6667 16 10.6667C14.5855 10.6667 13.2289 11.2287 12.2288 12.2288C11.2286 13.229 10.6667 14.5856 10.6667 16.0001C10.6667 17.4146 11.2286 18.7711 12.2288 19.7713C13.2289 20.7715 14.5855 21.3334 16 21.3334Z" fill="white"/>
<path fill-rule="evenodd" clip-rule="evenodd" d="M16 0C16.4715 0 16.9237 0.187301 17.2571 0.520699C17.5905 0.854097 17.7778 1.30628 17.7778 1.77778V3.68C20.4373 4.06441 22.901 5.29883 24.8011 7.19891C26.7012 9.09898 27.9356 11.5627 28.32 14.2222H30.2222C30.6937 14.2222 31.1459 14.4095 31.4793 14.7429C31.8127 15.0763 32 15.5285 32 16C32 16.4715 31.8127 16.9237 31.4793 17.2571C31.1459 17.5905 30.6937 17.7778 30.2222 17.7778H28.32C27.9356 20.4373 26.7012 22.901 24.8011 24.8011C22.901 26.7012 20.4373 27.9356 17.7778 28.32V30.2222C17.7778 30.6937 17.5905 31.1459 17.2571 31.4793C16.9237 31.8127 16.4715 32 16 32C15.5285 32 15.0763 31.8127 14.7429 31.4793C14.4095 31.1459 14.2222 30.6937 14.2222 30.2222V28.32C11.5627 27.9356 9.09898 26.7012 7.19891 24.8011C5.29883 22.901 4.06441 20.4373 3.68 17.7778H1.77778C1.30628 17.7778 0.854097 17.5905 0.520699 17.2571C0.187301 16.9237 0 16.4715 0 16C0 15.5285 0.187301 15.0763 0.520699 14.7429C0.854097 14.4095 1.30628 14.2222 1.77778 14.2222H3.68C4.06468 11.5629 5.29919 9.09925 7.19922 7.19922C9.09925 5.29919 11.5629 4.06468 14.2222 3.68V1.77778C14.2222 1.30628 14.4095 0.854097 14.7429 0.520699C15.0763 0.187301 15.5285 0 16 0ZM7.11111 16C7.11111 13.6425 8.04762 11.3816 9.71461 9.71461C11.3816 8.04762 13.6425 7.11111 16 7.11111C18.3575 7.11111 20.6184 8.04762 22.2854 9.71461C23.9524 11.3816 24.8889 13.6425 24.8889 16C24.8889 18.3575 23.9524 20.6184 22.2854 22.2854C20.6184 23.9524 18.3575 24.8889 16 24.8889C13.6425 24.8889 11.3816 23.9524 9.71461 22.2854C8.04762 20.6184 7.11111 18.3575 7.11111 16Z" fill="white"/>
</svg>
